HIERARCHY
ROOT Hips
{
	OFFSET -0.179506 -22.333345 2.821913
	CHANNELS 6 Xposition Yposition Zposition Zrotation Yrotation Xrotation 
	JOINT LeftUpLeg
	{
		OFFSET 6.951974 -9.140623 -0.681533
		CHANNELS 3 Zrotation Yrotation Xrotation
		JOINT LeftLeg
		{
			OFFSET 3.427654 -37.519855 -0.449580
			CHANNELS 3 Zrotation Yrotation Xrotation
			JOINT LeftFoot
			{
				OFFSET -1.359570 -39.796059 -4.369333
				CHANNELS 3 Zrotation Yrotation Xrotation
				JOINT LeftToe
				{
					OFFSET 2.635814 -5.579078 11.928840
					CHANNELS 3 Zrotation Yrotation Xrotation
					End Site
					{
						OFFSET 0.000000 0.000000 0.000000
					}
				}
			}
		}
	}
	JOINT RightUpLeg
	{
		OFFSET -6.767048 -9.052170 -0.431982
		CHANNELS 3 Zrotation Yrotation Xrotation
		JOINT RightLeg
		{
			OFFSET -3.829005 -38.256897 -0.885003
			CHANNELS 3 Zrotation Yrotation Xrotation
			JOINT RightFoot
			{
				OFFSET 1.577377 -39.841461 -4.231180
				CHANNELS 3 Zrotation Yrotation Xrotation
				JOINT RightToe
				{
					OFFSET -2.537174 -4.814398 12.334795
					CHANNELS 3 Zrotation Yrotation Xrotation
					End Site
					{
						OFFSET 0.000000 0.000000 0.000000
					}
				}
			}
		}
	}
	JOINT Spine
	{
		OFFSET -0.253288 10.896323 -2.669631
		CHANNELS 3 Zrotation Yrotation Xrotation
		JOINT Spine1
		{
			OFFSET 0.548704 13.518043 0.109247
			CHANNELS 3 Zrotation Yrotation Xrotation
			JOINT Spine2
			{
				OFFSET 0.145701 5.292222 2.542457
				CHANNELS 3 Zrotation Yrotation Xrotation
				JOINT Neck
				{
					OFFSET -0.277840 21.387037 -4.285703
					CHANNELS 3 Zrotation Yrotation Xrotation
					JOINT Head
					{
						OFFSET 0.515184 6.496960 5.134897
						CHANNELS 3 Zrotation Yrotation Xrotation
						End Site
						{
							OFFSET 0.000000 0.000000 0.000000
						}
					}
				}
				JOINT LeftShoulder
				{
					OFFSET 7.884473 12.174932 -3.408961
					CHANNELS 3 Zrotation Yrotation Xrotation
					JOINT LeftArm
					{
						OFFSET 9.097692 3.046888 -0.886815
						CHANNELS 3 Zrotation Yrotation Xrotation
						JOINT LeftForeArm
						{
							OFFSET 25.961220 -1.277207 -2.745643
							CHANNELS 3 Zrotation Yrotation Xrotation
							JOINT LeftHand
							{
								OFFSET 24.923361 0.898606 -0.117091
								CHANNELS 3 Zrotation Yrotation Xrotation
								End Site
								{
									OFFSET 0.000000 0.000000 0.000000
								}
							}
						}
					}
				}
				JOINT RightShoulder
				{
					OFFSET -8.175920 11.883285 -3.861528
					CHANNELS 3 Zrotation Yrotation Xrotation
					JOINT RightArm
					{
						OFFSET -9.601238 3.255117 -0.914307
						CHANNELS 3 Zrotation Yrotation Xrotation
						JOINT RightForeArm
						{
							OFFSET -25.374195 -1.332924 -2.140099
							CHANNELS 3 Zrotation Yrotation Xrotation
							JOINT RightHand
							{
								OFFSET -25.529810 0.777228 -0.555919
								CHANNELS 3 Zrotation Yrotation Xrotation
								End Site
								{
									OFFSET 0.000000 0.000000 0.000000
								}
							}
						}
					}
				}
			}
		}
	}
}
MOTION
Frames: 13
Frame Time: 0.033333
344.687347 -338.273132 82.836563 -124.076546 6.801682 104.005570 5.885211 1.345453 -19.496038 -6.945319 3.508856 40.831816 5.020563 19.334314 -39.711276 nan nan nan -9.062701 -2.360774 -31.580383 5.577155 -5.118097 39.033934 4.074182 -2.984124 0.679341 nan nan nan 1.089269 -1.181305 15.969009 6.529646 -2.773117 7.487452 1.953290 -2.085141 -4.948694 0.016892 3.005952 -10.940416 1.473473 -0.604984 -11.980022 -28.664804 -0.398569 3.101507 -54.419188 -4.420117 19.133815 40.442646 -70.184901 -26.310635 18.141659 -27.127260 -19.463863 25.638785 -3.601410 1.810597 47.968353 -17.105178 4.212786 -28.374465 60.428683 -20.583394 -16.947580 16.809411 -24.494130 
343.405365 -336.481293 83.196198 -124.073988 6.703304 104.244072 6.246120 1.457746 -17.553444 -7.471696 2.174501 40.161241 4.995098 19.420178 -41.017950 nan nan nan -9.313242 -2.524854 -30.565115 5.684675 -4.920880 39.883114 4.118456 -3.029108 -0.012592 nan nan nan 0.737307 -1.276595 15.164335 6.675946 -2.968376 8.284142 1.921916 -2.267894 -4.977379 0.441449 3.280459 -11.337002 1.268168 -0.898458 -11.318148 -28.086590 -0.442643 3.004923 -54.324622 -5.886869 19.048885 44.876488 -71.639681 -30.788294 18.208159 -27.144774 -19.015912 25.388423 -4.050115 1.829606 47.972112 -17.881081 4.203185 -29.735640 61.275868 -21.662011 -16.638588 16.779203 -25.293031 
341.015137 -334.707550 84.130753 -120.881690 5.453239 101.337929 5.360413 -0.005685 -10.769067 -9.570617 -3.877906 37.745696 6.212115 25.866868 -48.947744 nan nan nan -6.453790 1.626630 -57.949991 7.428620 -16.539756 94.485975 1.070698 0.414135 -14.695283 nan nan nan -0.884519 -6.525180 19.606648 7.371393 -0.593776 8.179536 2.269985 -3.467092 -6.246300 -0.453763 4.020740 -10.231207 2.289338 -0.977192 -11.633467 -27.040981 -0.709961 0.698315 -56.144751 -4.445143 19.090506 48.894016 -73.255885 -39.652580 14.869719 -28.278991 -15.735258 26.068351 -1.541083 3.070769 50.532926 -22.835708 12.443606 0.826566 55.894413 10.896306 -12.598993 21.244348 -30.080529 
339.072601 -332.513153 84.526787 -119.678426 4.826203 100.740922 5.482756 0.322383 -7.331106 -9.048768 -5.235607 35.886881 5.755869 25.880587 -49.838377 nan nan nan -7.066202 1.170198 -58.482891 7.606681 -16.288179 91.845014 1.350113 0.367586 -13.545927 nan nan nan -1.102521 -6.769739 19.232637 7.478415 -0.797895 8.913733 2.285641 -4.382204 -6.026911 -0.237935 3.814247 -10.803240 2.265380 -1.294430 -11.134299 -26.462168 -0.498367 0.580394 -56.368370 -5.653530 19.299364 54.774360 -74.591269 -46.857676 13.888164 -29.019628 -17.080217 26.293942 -2.661434 2.478850 49.555719 -23.738420 13.008316 3.306247 55.826441 12.284320 -10.038777 21.613887 -30.164026 
337.216492 -330.613739 85.089096 -119.771365 4.682614 100.677238 5.753501 0.942121 -4.533061 -8.493621 -6.188550 33.777138 5.229943 25.310590 -49.842766 nan nan nan -7.449420 0.826626 -58.720827 7.881655 -15.893056 87.304723 1.649918 0.429954 -12.843938 nan nan nan -1.068845 -7.260153 18.573004 7.408893 -0.792310 9.426054 2.179601 -4.487329 -5.979964 -0.112956 4.243220 -10.448370 2.058222 -1.491349 -11.063375 -26.107555 -0.270358 0.549627 -56.949754 -6.402544 19.531277 61.041787 -75.155083 -52.916930 13.251442 -29.527361 -16.263080 25.856243 -3.202345 2.868653 49.861333 -24.381251 13.032839 4.107829 55.624094 13.811657 -8.540421 21.953218 -29.010363 
333.551331 -328.523621 85.289284 -115.716766 2.304665 97.500874 3.780892 0.378344 2.963567 -7.602241 -10.670461 29.855082 5.113897 25.793654 -52.105976 nan nan nan -9.043960 1.809594 -54.001571 9.603576 -11.078128 84.363783 1.613865 0.130849 -15.501791 nan nan nan -1.440873 -9.030344 17.875183 7.428732 -3.067504 12.217347 1.851636 -5.576150 -5.681813 -0.807731 2.669974 -9.587013 2.336812 -0.409619 -11.495731 -26.462742 -0.612910 1.436546 -57.028437 -7.458823 18.971755 64.519370 -76.556172 -56.050311 11.146333 -29.349919 -13.394751 25.335319 -4.621382 2.643574 49.523606 -24.748519 12.977739 4.890558 55.635811 13.557439 -5.681048 21.432981 -29.067910 
331.828552 -326.689819 86.041382 -116.469582 2.746685 98.213784 4.921127 1.548235 4.379344 -6.400612 -10.287239 27.291711 4.287452 24.510659 -51.430760 nan nan nan -9.314913 1.850559 -53.890576 10.098062 -10.061397 77.913460 2.373137 1.672599 -15.031373 nan nan nan -0.762540 -9.189008 17.102321 7.366177 -2.623577 12.278779 1.873681 -5.460912 -6.044562 -0.890017 3.745660 -8.708695 1.940803 -1.130419 -12.170749 -26.557212 -0.433323 0.809095 -57.756153 -7.598440 19.818492 67.629814 -76.595192 -57.615666 15.180557 -32.095510 -12.892888 24.951421 -4.893181 3.046998 49.087614 -26.367425 13.974235 7.184284 55.919546 18.868561 -8.147142 25.184218 -27.117373 
330.028229 -324.782776 86.741096 -117.011198 2.905745 98.798919 5.931216 2.845393 5.635984 -5.566968 -9.482453 25.454187 3.643148 23.957486 -49.973381 nan nan nan -9.380604 0.980425 -53.835552 9.851468 -10.101085 72.106689 2.768750 1.414389 -12.924891 nan nan nan -0.401552 -9.321096 16.186441 7.329167 -2.303409 11.999397 1.820067 -5.408590 -5.735353 -0.941688 3.928075 -8.322907 1.569256 -1.168372 -12.302285 -26.581693 -0.103026 0.796974 -58.141181 -7.960359 20.125272 75.074179 -77.200931 -64.318948 15.836062 -31.260969 -12.566153 24.425646 -5.571720 3.101771 49.355303 -26.225231 13.150137 7.141986 55.184644 17.799746 -8.009828 23.590831 -27.409784 
328.097778 -322.758484 87.432953 -117.286402 3.040248 99.000987 6.960469 3.863770 7.320678 -4.471445 -8.697167 23.524586 3.001791 23.594067 -48.857772 nan nan nan -9.395405 0.592464 -53.009552 9.924852 -9.657917 66.084765 3.362901 1.683440 -10.847457 nan nan nan -0.217965 -9.347603 15.235286 7.445978 -2.142601 12.087087 1.878421 -5.480167 -5.443893 -0.997076 4.194258 -7.602389 1.281391 -1.353680 -12.568925 -26.374888 0.130024 0.896503 -58.920078 -8.406611 20.485176 80.868131 -77.571683 -69.927223 16.715606 -31.467520 -13.546966 23.858892 -6.326164 3.277577 49.557441 -26.500544 12.505094 7.780440 55.106564 18.252888 -7.847637 23.025372 -26.920240 
326.105438 -320.480286 88.086418 -117.878849 3.368228 99.075494 8.881871 6.366503 8.951227 -3.175742 -3.391015 20.750986 2.751113 23.438930 -43.743882 nan nan nan -9.807311 -6.858549 -59.885238 1.880285 -22.239760 72.637295 4.981789 -2.629726 8.561586 nan nan nan -0.951723 -9.757758 14.714679 8.340005 -0.755598 11.970439 2.027201 -5.498129 -5.388154 -0.026838 5.515522 -6.424328 -0.350616 -2.844749 -12.690588 -25.754646 0.295428 1.162830 -60.396992 -8.185950 21.023350 87.895212 -77.867861 -77.513866 16.442346 -31.734261 -13.565692 24.008891 -6.411173 3.558490 49.389996 -28.380495 11.293390 8.553246 55.625928 18.122686 -5.996177 22.270989 -25.041896 
324.059326 -318.423798 88.774956 -118.017297 3.300690 99.168568 9.886930 7.254353 10.567636 -2.266940 -2.473845 19.479400 2.068485 23.176832 -42.793519 nan nan nan -9.473169 -6.593073 -58.612007 2.951365 -22.034328 66.679698 5.458956 -2.209615 9.496716 nan nan nan -0.840041 -9.863198 13.837446 8.365817 -0.843292 11.810878 2.146494 -5.684639 -4.967149 -0.483507 5.853145 -5.095014 -0.333340 -2.922384 -13.868551 -25.773755 0.364335 1.849653 -60.609486 -7.962414 20.475004 97.775393 -77.766227 -87.386479 15.310362 -32.059315 -13.404468 23.466386 -6.616651 4.124311 49.919696 -28.828952 10.530558 9.043503 55.602639 18.802552 -4.375361 22.375960 -24.750030 
322.165039 -316.402802 89.361221 -118.387631 2.878157 98.720411 10.569891 7.949024 12.563344 -1.580828 -1.439875 18.217936 1.795982 23.240877 -42.736419 nan nan nan -9.250452 -6.037467 -56.935293 3.935994 -21.240313 60.778866 5.708697 -1.698937 9.976348 nan nan nan -1.251854 -10.023626 12.981472 8.218738 -1.330222 14.150345 1.826928 -5.588128 -5.889891 0.109912 7.313973 -5.127565 -0.853058 -3.629463 -14.068316 -24.893909 1.132875 1.957162 -61.000537 -8.250837 20.501240 107.404967 -77.078356 -96.688023 13.146652 -31.967848 -11.585383 23.360135 -6.734045 4.869981 51.048374 -28.391349 10.748606 7.307955 55.806486 17.397344 -3.024066 22.289115 -24.453384 
320.107574 -314.482819 89.946533 -118.229441 2.490029 98.703268 11.125044 8.670423 13.696140 -1.017684 -0.314025 17.230592 1.282574 22.918011 -42.194539 nan nan nan -9.098765 -5.666922 -55.220067 4.790255 -20.352608 54.528170 6.078184 -1.351608 10.545919 nan nan nan -1.326822 -10.139254 12.393654 8.210183 -1.629374 14.488186 1.851448 -5.626507 -6.093698 0.012016 7.715726 -4.258315 -0.917408 -3.827623 -14.858473 -24.886374 1.564006 2.104416 -61.109984 -8.278743 20.624992 112.901590 -76.897256 -101.986515 12.531697 -32.715236 -11.139084 23.020759 -7.266079 5.104223 51.377399 -28.632780 10.525433 7.198194 56.002762 17.532376 -2.376811 22.588165 -23.905111 
